<?xml version="1.0" encoding="UTF-8" standalone="no" ?>
<!DOCTYPE svg PUBLIC "-//W3C//DTD SVG 1.1//EN" "http://www.w3.org/Graphics/SVG/1.1/DTD/svg11.dtd">
<svg xmlns="http://www.w3.org/2000/svg" xmlns:xlink="http://www.w3.org/1999/xlink" version="1.1" width="275" height="70" viewBox="0 0 275 70" xml:space="preserve">
<desc>Created with Fabric.js 5.2.4</desc>
<defs>
</defs>
<g transform="matrix(1 0 0 1 137.5 35)" id="d8350a0d-ae22-4c6f-8948-5ca475ea1d4a"  >
<rect style="stroke: none; stroke-width: 1; stroke-dasharray: none; stroke-linecap: butt; stroke-dashoffset: 0; stroke-linejoin: miter; stroke-miterlimit: 4; fill: rgb(255,255,255); fill-rule: nonzero; opacity: 1; visibility: hidden;" vector-effect="non-scaling-stroke"  x="-137.5" y="-35" rx="0" ry="0" width="275" height="70" />
</g>
<g transform="matrix(Infinity NaN NaN Infinity 0 0)" id="a67fa93a-0e81-4e06-a54a-ea2f33f5fd03"  >
</g>
<g transform="matrix(1 0 0 1 137.5 35)" id="Vector"  >
<path style="stroke: rgb(0,0,0); stroke-width: 0; stroke-dasharray: none; stroke-linecap: butt; stroke-dashoffset: 0; stroke-linejoin: miter; stroke-miterlimit: 4; fill: rgb(235,21,30); fill-rule: nonzero; opacity: 1;" vector-effect="non-scaling-stroke"  transform=" translate(-118.5, -13)" d="M 141.837 11.8752 C 110.297 12.337 78.7405 14.169 47.3375 17.4435 C 32.4074 19.0006 15.0692 18.8059 0.588948 24.1146 C -0.132566 24.3817 0.00484376 25.1832 0.020461 25.2633 C 0.0516953 25.4274 0.182913 25.9731 0.757626 25.9999 C 0.820095 26.0037 1.26047 25.9273 1.42914 25.9006 C 5.70512 25.2137 9.9655 24.4123 14.2446 23.7635 C 29.0185 21.5156 43.8361 19.8173 58.6755 18.3289 C 78.3719 16.352 98.237 15.2986 117.987 14.4743 C 128.797 14.0239 139.866 14.6231 150.711 13.6919 C 154.693 13.6652 158.676 13.6614 162.658 13.6767 C 179.306 13.7492 195.935 14.5201 212.555 15.5773 C 217.899 15.9169 221.975 16.2833 227.207 16.5314 C 229.193 16.6268 232.345 16.6917 234.538 16.7336 C 234.859 16.7413 235.681 16.7488 236.021 16.7527 C 236.056 16.7603 236.09 16.7603 236.127 16.7603 C 236.259 16.7603 236.321 16.7488 236.334 16.7488 C 237.077 16.6153 237.008 15.7566 236.99 15.6268 C 236.986 15.6001 236.874 14.875 236.234 14.8483 C 236.081 14.8406 234.984 14.8331 234.563 14.8254 C 232.382 14.7834 229.243 14.7186 227.266 14.627 C 222.044 14.3789 217.971 14.0125 212.636 13.6729 C 195.991 12.6157 179.337 11.841 162.664 11.7685 C 160.628 11.7608 158.588 11.757 156.552 11.7608 C 156.483 11.5433 156.33 11.299 155.993 11.1922 C 155.677 11.093 153.419 11.0052 152.547 10.9174 C 146.098 10.2686 146.288 10.2991 139.192 9.76866 C 128.444 8.96339 126.807 8.78011 115.628 8.44045 C 95.3228 7.82219 75.008 7.87187 54.6994 7.93293 C 44.6732 7.96728 33.9379 8.79543 23.7586 7.24977 C 27.1132 6.7689 30.4802 6.4178 33.8411 6.01707 C 45.3166 4.65079 56.8015 3.8035 68.3238 3.20814 C 95.9632 1.78079 123.646 1.21219 151.276 3.15857 C 145.395 3.22726 139.516 3.38751 133.635 3.49055 C 109.694 3.91799 85.5215 3.59744 61.6303 5.81479 C 61.2024 5.85677 60.8807 6.31472 60.9119 6.83757 C 60.9432 7.36424 61.3211 7.75735 61.749 7.71919 C 85.6089 5.50184 109.747 5.82621 133.657 5.39877 C 142.54 5.24229 151.42 4.9599 160.303 5.04386 C 163.351 5.0744 166.4 5.21181 169.448 5.25761 C 170.051 5.26906 171.604 5.41408 171.825 5.35302 C 172.316 5.21944 172.422 4.77671 172.453 4.55917 C 172.469 4.42941 172.519 3.68139 171.769 3.41424 C 166.653 1.58999 157.211 1.67395 152.238 1.3152 C 124.268 -0.707507 96.2412 -0.14269 68.2583 1.29992 C 56.7078 1.8991 45.1948 2.75022 33.688 4.12032 C 29.6682 4.59737 25.6389 5.00954 21.6347 5.64307 C 20.9881 5.74611 19.5357 5.89498 18.833 6.05145 C 18.5394 6.11633 18.327 6.20786 18.2333 6.27274 C 17.8678 6.52463 17.8022 6.89101 17.8022 7.13908 C 17.7991 7.3299 17.8647 8.00159 18.6299 8.18478 C 30.2897 10.9746 42.9771 9.87931 54.7025 9.84115 C 74.9986 9.78008 95.2979 9.73041 115.591 10.3487 C 126.742 10.6883 128.372 10.8678 139.098 11.6731 C 140.157 11.7494 141.053 11.818 141.837 11.8752 Z" stroke-linecap="round" />
</g>
<g transform="matrix(NaN NaN NaN NaN 0 0)"  >
<g style=""   >
</g>
</g>
</svg>